<svg width="528" height="230" viewBox="0 0 528 230" fill="none" xmlns="http://www.w3.org/2000/svg">
<path d="M68.8721 113.441C103.275 113.441 125.896 90.113 125.896 56.8884C125.896 23.1924 103.511 0.571426 68.8721 0.571426H0.773438V172.821H30.9348V113.441H68.8721ZM62.9813 27.4339C83.0103 27.4339 94.3208 37.8019 94.3208 56.6527C94.3208 75.5036 83.2459 86.5785 62.51 86.5785H30.9348V27.4339H62.9813Z" fill="#181818"/>
<path d="M218.895 56.4171V117.447C218.895 139.596 210.176 150.2 192.032 150.2C176.009 150.2 167.291 141.246 167.291 119.096V56.4171H138.543V129.229C138.543 157.74 154.331 175.884 181.193 175.884C196.745 175.884 211.826 168.344 218.895 157.269L221.015 172.821H247.642V56.4171H218.895Z" fill="#181818"/>
<path d="M309.852 172.821V80.4519H332.473V56.4171H309.852V20.1292H281.104V56.4171H258.719V80.4519H281.104V172.821H309.852Z" fill="#181818"/>
<path d="M386.084 172.821V80.4519H408.705V56.4171H386.084V20.1292H357.336V56.4171H334.951V80.4519H357.336V172.821H386.084Z" fill="#181818"/>
<path d="M409.375 226.782C415.737 228.431 422.806 229.374 430.818 229.374C449.904 229.374 462.157 220.42 470.876 198.741L527.9 56.4171H498.21L466.634 141.246L436.709 56.4171H406.312L453.203 177.769L449.904 186.488C444.956 200.155 437.887 202.747 426.576 202.747H409.375V226.782Z" fill="#181818"/>
</svg>
