<svg width="201" height="148" viewBox="0 0 201 148" fill="none" xmlns="http://www.w3.org/2000/svg">
<path d="M12.232 41.952V31.776H40.648C44.04 31.776 46.728 30.88 48.712 29.088C50.696 27.232 51.688 24.672 51.688 21.408C51.688 18.016 50.696 15.424 48.712 13.632C46.728 11.84 44.04 10.944 40.648 10.944H13.768V62.112H1V0H39.496C42.952 0 46.184 0.416 49.192 1.248C52.264 2.08 54.92 3.36 57.16 5.088C59.464 6.816 61.256 9.024 62.536 11.712C63.816 14.4 64.456 17.632 64.456 21.408C64.456 25.12 63.816 28.288 62.536 30.912C61.256 33.536 59.464 35.68 57.16 37.344C54.92 38.944 52.264 40.128 49.192 40.896C46.184 41.6 42.952 41.952 39.496 41.952H12.232Z" fill="#181818"/>
<path d="M128.121 62.112H115.641V14.4H128.121V62.112ZM116.313 39.168L116.409 42.432C116.281 43.328 115.961 44.64 115.449 46.368C114.937 48.032 114.137 49.824 113.049 51.744C112.025 53.664 110.681 55.52 109.017 57.312C107.353 59.04 105.305 60.48 102.873 61.632C100.441 62.72 97.5613 63.264 94.2333 63.264C91.6093 63.264 89.0173 62.944 86.4573 62.304C83.9613 61.664 81.6893 60.608 79.6413 59.136C77.5933 57.6 75.9613 55.552 74.7453 52.992C73.5293 50.432 72.9213 47.2 72.9213 43.296V14.4H85.4013V41.184C85.4013 44.256 85.8813 46.688 86.8413 48.48C87.8653 50.208 89.3373 51.424 91.2573 52.128C93.1773 52.832 95.4493 53.184 98.0733 53.184C101.529 53.184 104.505 52.448 107.001 50.976C109.497 49.44 111.513 47.584 113.049 45.408C114.649 43.232 115.737 41.152 116.313 39.168Z" fill="#181818"/>
<path d="M63.5515 80.6861H100.607V90.3821H63.5515V80.6861ZM75.8395 67.6301H88.3195V128.398H75.8395V67.6301Z" fill="#181818"/>
<path d="M103.256 80.6861H140.312V90.3821H121.784H103.256V80.6861ZM115.544 67.6301H128.024V128.398H115.544V67.6301Z" fill="#181818"/>
<path d="M142.001 80.6861H155.249L175.889 126.478L165.137 128.398L142.001 80.6861ZM200.369 80.6861L167.345 147.598H154.385L168.497 121.294L187.025 80.6861H200.369Z" fill="#181818"/>
<g clip-path="url(#clip0_409_126)">
<path d="M0.553978 116.763C1.31818 116.765 2.07499 116.694 2.82497 116.55C3.57436 116.407 4.30213 116.193 5.00832 115.91C5.71448 115.626 6.38485 115.278 7.01943 114.865C7.6546 114.452 8.24165 113.983 8.78053 113.457C9.32189 112.934 9.80583 112.364 10.2312 111.749C10.6565 111.132 11.0151 110.482 11.3077 109.797C11.6003 109.112 11.8201 108.406 11.9682 107.678C12.1163 106.951 12.1892 106.216 12.1873 105.475C12.1873 105.446 12.1978 105.421 12.2194 105.4C12.2404 105.379 12.2663 105.369 12.2966 105.369C12.3268 105.369 12.3521 105.379 12.3737 105.4C12.3953 105.421 12.4058 105.446 12.4058 105.475C12.404 106.216 12.4768 106.951 12.625 107.678C12.7725 108.406 12.9929 109.112 13.2855 109.797C13.5781 110.482 13.9367 111.132 14.362 111.749C14.7873 112.364 15.2713 112.934 15.8126 113.457C16.3515 113.983 16.9386 114.452 17.5731 114.865C18.2083 115.278 18.8787 115.626 19.5849 115.91C20.2904 116.193 21.0188 116.407 21.7682 116.55C22.5182 116.694 23.275 116.765 24.0392 116.763C24.0694 116.763 24.0954 116.773 24.1163 116.794C24.1379 116.815 24.1484 116.84 24.1484 116.869C24.1484 116.898 24.1379 116.923 24.1163 116.944C24.0954 116.964 24.0694 116.975 24.0392 116.975C23.275 116.973 22.5182 117.043 21.7682 117.187C21.0188 117.331 20.291 117.545 19.5849 117.829C18.8787 118.112 18.2083 118.461 17.5737 118.873C16.9386 119.286 16.3515 119.755 15.8126 120.281C15.2713 120.804 14.7873 121.373 14.362 121.989C13.9367 122.605 13.5781 123.256 13.2855 123.94C12.9929 124.626 12.7725 125.332 12.625 126.06C12.4768 126.787 12.404 127.522 12.4058 128.263C12.4058 128.292 12.3953 128.317 12.3737 128.338C12.3521 128.358 12.3268 128.369 12.2966 128.369C12.2663 128.369 12.2404 128.358 12.2194 128.338C12.1978 128.317 12.1873 128.292 12.1873 128.263C12.1873 122.039 6.96879 116.975 0.553978 116.975C0.523755 116.975 0.49783 116.964 0.476822 116.944C0.455222 116.923 0.444734 116.898 0.444734 116.869C0.444734 116.84 0.455222 116.815 0.476822 116.794C0.49783 116.773 0.523755 116.763 0.553978 116.763ZM12.2966 126.694C12.3824 126.076 12.5201 125.47 12.7083 124.874C12.8966 124.278 13.1342 123.701 13.4201 123.143C13.7058 122.586 14.0367 122.054 14.412 121.548C14.7879 121.043 15.2034 120.57 15.6589 120.13C16.1114 119.689 16.5978 119.286 17.1188 118.922C17.6392 118.558 18.1867 118.237 18.7614 117.959C19.3361 117.682 19.9305 117.452 20.5435 117.269C21.1571 117.086 21.7824 116.952 22.4182 116.869C21.7818 116.785 21.1571 116.652 20.5435 116.468C19.9299 116.286 19.3361 116.056 18.7608 115.778C18.1861 115.501 17.6386 115.18 17.1182 114.815C16.5972 114.451 16.1108 114.048 15.6583 113.607C15.2027 113.168 14.7879 112.695 14.412 112.19C14.0367 111.685 13.7065 111.153 13.4206 110.596C13.1342 110.038 12.8972 109.462 12.7089 108.866C12.5201 108.271 12.383 107.665 12.2966 107.048C12.2102 107.665 12.0725 108.271 11.8842 108.866C11.696 109.462 11.4583 110.038 11.1725 110.596C10.8867 111.153 10.5565 111.685 10.1805 112.19C9.80524 112.695 9.3898 113.168 8.93487 113.607C8.48177 114.049 7.99534 114.452 7.47436 114.816C6.95339 115.181 6.40524 115.502 5.82992 115.779C5.2546 116.056 4.66017 116.286 4.04598 116.469C3.43238 116.652 2.80707 116.785 2.17066 116.869C7.4151 117.567 11.5774 121.606 12.2966 126.694Z" fill="#191919"/>
</g>
<g clip-path="url(#clip1_409_126)">
<path d="M200.618 14.4788C200.578 14.4621 200.542 14.4689 200.511 14.4992L196.805 18.1601V10.7419C196.805 10.6993 196.784 10.6696 196.744 10.6536C196.704 10.6369 196.668 10.6437 196.638 10.674L192.931 14.3349V6.91665C192.928 6.8765 192.907 6.84871 192.87 6.83452C192.831 6.8197 192.798 6.82587 192.768 6.85304L189.061 10.514V3.09575C189.06 3.05375 189.04 3.02473 189.001 3.00867C188.962 2.99261 188.927 2.99879 188.896 3.02781L176.706 15.0723C176.677 15.1025 176.67 15.1371 176.687 15.1754C176.703 15.2143 176.732 15.2341 176.775 15.2347H184.281L180.579 18.8956C180.548 18.9259 180.541 18.9611 180.558 19.0006C180.575 19.0401 180.605 19.0599 180.648 19.0599H188.153L184.449 22.7209C184.419 22.7518 184.412 22.7863 184.428 22.8259C184.445 22.8654 184.474 22.8852 184.518 22.8852H192.025L188.321 26.5461C188.291 26.577 188.283 26.6116 188.3 26.6511C188.316 26.6906 188.346 26.7104 188.389 26.7104H200.58C200.607 26.7104 200.63 26.7011 200.649 26.6826C200.668 26.6634 200.678 26.6412 200.678 26.614V14.5714C200.679 14.527 200.659 14.4961 200.618 14.4788ZM177.01 15.042L188.868 3.32857V10.7067L184.476 15.042H177.01ZM188.868 10.9753V15.042H184.752L188.868 10.9753ZM180.882 18.8679L184.557 15.2347H188.965C188.992 15.2347 189.015 15.2254 189.034 15.2069C189.053 15.1878 189.063 15.1649 189.063 15.1384V10.7845L192.74 7.15194V14.5294L188.349 18.8679H180.882ZM192.74 14.8012V18.8672H188.624L192.74 14.8012ZM184.753 22.6919L188.429 19.0605H192.837C192.864 19.0605 192.886 19.0513 192.906 19.0321C192.925 19.0136 192.935 18.9908 192.935 18.9642V14.6085L196.611 10.9753V18.3528L192.221 22.6919H184.753ZM196.611 18.6258V22.6919H192.496L196.611 18.6258ZM200.483 26.5159H188.627L192.302 22.8845H196.708C196.735 22.8845 196.758 22.8753 196.778 22.8561C196.796 22.8376 196.806 22.8148 196.806 22.7882V18.4331L200.483 14.8012V26.5159Z" fill="#191919"/>
</g>
<defs>
<clipPath id="clip0_409_126">
<rect width="24" height="23" fill="white" transform="matrix(-1 0 0 1 24.2969 105.369)"/>
</clipPath>
<clipPath id="clip1_409_126">
<rect width="24" height="24" fill="white" transform="translate(176.678 3)"/>
</clipPath>
</defs>
</svg>
