<svg width="200" height="142" viewBox="0 0 200 142" fill="none" xmlns="http://www.w3.org/2000/svg">
<path d="M11.232 41.952V31.776H39.648C43.04 31.776 45.728 30.88 47.712 29.088C49.696 27.232 50.688 24.672 50.688 21.408C50.688 18.016 49.696 15.424 47.712 13.632C45.728 11.84 43.04 10.944 39.648 10.944H12.768V62.112H0V0H38.496C41.952 0 45.184 0.416 48.192 1.248C51.264 2.08 53.92 3.36 56.16 5.088C58.464 6.816 60.256 9.024 61.536 11.712C62.816 14.4 63.456 17.632 63.456 21.408C63.456 25.12 62.816 28.288 61.536 30.912C60.256 33.536 58.464 35.68 56.16 37.344C53.92 38.944 51.264 40.128 48.192 40.896C45.184 41.6 41.952 41.952 38.496 41.952H11.232Z" fill="#181818"/>
<path d="M127.121 62.112H114.641V14.4H127.121V62.112ZM115.313 39.168L115.409 42.432C115.281 43.328 114.961 44.64 114.449 46.368C113.937 48.032 113.137 49.824 112.049 51.744C111.025 53.664 109.681 55.52 108.017 57.312C106.353 59.04 104.305 60.48 101.873 61.632C99.4413 62.72 96.5613 63.264 93.2333 63.264C90.6093 63.264 88.0173 62.944 85.4573 62.304C82.9613 61.664 80.6893 60.608 78.6413 59.136C76.5933 57.6 74.9613 55.552 73.7453 52.992C72.5293 50.432 71.9213 47.2 71.9213 43.296V14.4H84.4013V41.184C84.4013 44.256 84.8813 46.688 85.8413 48.48C86.8653 50.208 88.3373 51.424 90.2573 52.128C92.1773 52.832 94.4493 53.184 97.0733 53.184C100.529 53.184 103.505 52.448 106.001 50.976C108.497 49.44 110.513 47.584 112.049 45.408C113.649 43.232 114.737 41.152 115.313 39.168Z" fill="#181818"/>
<path d="M62.5515 74.6861H99.6075V84.3821H62.5515V74.6861ZM74.8395 61.6301H87.3195V122.398H74.8395V61.6301Z" fill="#181818"/>
<path d="M102.256 74.6861H139.312V84.3821H120.784H102.256V74.6861ZM114.544 61.6301H127.024V122.398H114.544V61.6301Z" fill="#181818"/>
<path d="M141.001 74.6861H154.249L174.889 120.478L164.137 122.398L141.001 74.6861ZM199.369 74.6861L166.345 141.598H153.385L167.497 115.294L186.025 74.6861H199.369Z" fill="#181818"/>
</svg>
