<svg width="162" height="71" viewBox="0 0 162 71" fill="none" xmlns="http://www.w3.org/2000/svg">
<path d="M20.9076 34.8681C31.4196 34.8681 38.3316 27.7401 38.3316 17.5881C38.3316 7.29205 31.4916 0.380054 20.9076 0.380054H0.0995781V53.0121H9.31558V34.8681H20.9076ZM19.1076 8.58805C25.2276 8.58805 28.6836 11.7561 28.6836 17.5161C28.6836 23.2761 25.2996 26.6601 18.9636 26.6601H9.31558V8.58805H19.1076ZM66.748 17.4441V36.0921C66.748 42.8601 64.084 46.1001 58.54 46.1001C53.644 46.1001 50.98 43.3641 50.98 36.5961V17.4441H42.196V39.6921C42.196 48.4041 47.02 53.9481 55.228 53.9481C59.98 53.9481 64.588 51.6441 66.748 48.2601L67.396 53.0121H75.532V17.4441H66.748ZM94.5405 53.0121V24.7881H101.453V17.4441H94.5405V6.35605H85.7565V17.4441H78.9165V24.7881H85.7565V53.0121H94.5405ZM117.834 53.0121V24.7881H124.746V17.4441H117.834V6.35605H109.05V17.4441H102.21V24.7881H109.05V53.0121H117.834ZM124.95 69.5001C126.894 70.0041 129.054 70.2921 131.502 70.2921C137.334 70.2921 141.078 67.5561 143.742 60.9321L161.166 17.4441H152.094L142.446 43.3641L133.302 17.4441H124.014L138.342 54.5241L137.334 57.1881C135.822 61.3641 133.662 62.1561 130.206 62.1561H124.95V69.5001Z" fill="#181818"/>
</svg>
