<svg width="271" height="83" viewBox="0 0 271 83" fill="none" xmlns="http://www.w3.org/2000/svg">
<path d="M11.4398 42.8752V32.6992H39.8558C43.2478 32.6992 45.9358 31.8032 47.9198 30.0112C49.9038 28.1552 50.8958 25.5952 50.8958 22.3312C50.8958 18.9392 49.9038 16.3472 47.9198 14.5552C45.9358 12.7632 43.2478 11.8672 39.8558 11.8672H12.9758V63.0352H0.207813V0.923239H38.7038C42.1598 0.923239 45.3918 1.33924 48.3998 2.17124C51.4718 3.00324 54.1278 4.28324 56.3678 6.01124C58.6718 7.73924 60.4638 9.94724 61.7438 12.6352C63.0238 15.3232 63.6638 18.5552 63.6638 22.3312C63.6638 26.0432 63.0238 29.2112 61.7438 31.8352C60.4638 34.4592 58.6718 36.6032 56.3678 38.2672C54.1278 39.8672 51.4718 41.0512 48.3998 41.8192C45.3918 42.5232 42.1598 42.8752 38.7038 42.8752H11.4398ZM127.329 63.0352H114.849V15.3232H127.329V63.0352ZM115.521 40.0912L115.617 43.3552C115.489 44.2512 115.169 45.5632 114.657 47.2912C114.145 48.9552 113.345 50.7472 112.257 52.6672C111.233 54.5872 109.889 56.4432 108.225 58.2352C106.561 59.9632 104.513 61.4032 102.081 62.5552C99.6491 63.6432 96.7691 64.1872 93.4411 64.1872C90.8171 64.1872 88.2251 63.8672 85.6651 63.2272C83.1691 62.5872 80.8971 61.5312 78.8491 60.0592C76.8011 58.5232 75.1691 56.4752 73.9531 53.9152C72.7371 51.3552 72.1291 48.1232 72.1291 44.2192V15.3232H84.6091V42.1072C84.6091 45.1792 85.0891 47.6112 86.0491 49.4032C87.0731 51.1312 88.5451 52.3472 90.4651 53.0512C92.3851 53.7552 94.6571 54.1072 97.2811 54.1072C100.737 54.1072 103.713 53.3712 106.209 51.8992C108.705 50.3632 110.721 48.5072 112.257 46.3312C113.857 44.1552 114.945 42.0752 115.521 40.0912ZM133.412 15.3232H170.468V25.0192H133.412V15.3232ZM145.7 2.26724H158.18V63.0352H145.7V2.26724ZM173.117 15.3232H210.173V25.0192H173.117V15.3232ZM185.405 2.26724H197.885V63.0352H185.405V2.26724ZM211.862 15.3232H225.11L245.75 61.1152L234.998 63.0352L211.862 15.3232ZM270.23 15.3232L237.206 82.2352H224.246L238.358 55.9312L256.886 15.3232H270.23Z" fill="#181818"/>
</svg>
